<mxfile host="app.diagrams.net" modified="2024-04-12T11:22:52.023Z" agent="Mozilla/5.0 (Windows NT 10.0; Win64; x64) AppleWebKit/537.36 (KHTML, like Gecko) Chrome/123.0.0.0 Safari/537.36" etag="Te33Ij7mUe9SAg2r4reT" scale="1" border="0" version="24.2.3" type="device">
  <diagram id="tlBTgTD6b5n8Ggt3G-EZ" name="Page-1">
    <mxGraphModel dx="2150" dy="928" grid="1" gridSize="10" guides="1" tooltips="1" connect="1" arrows="1" fold="1" page="1" pageScale="1" pageWidth="827" pageHeight="583" math="0" shadow="0">
      <root>
        <mxCell id="0" />
        <mxCell id="1" parent="0" />
        <mxCell id="13" value="" style="rounded=1;whiteSpace=wrap;html=1;fillColor=#f5f5f5;fontColor=#333333;strokeColor=#666666;" parent="1" vertex="1">
          <mxGeometry x="240" y="500" width="640" height="320" as="geometry" />
        </mxCell>
        <mxCell id="2" value="" style="rounded=1;whiteSpace=wrap;html=1;fillColor=#f5f5f5;strokeColor=#666666;fontColor=#333333;" parent="1" vertex="1">
          <mxGeometry x="240" y="30" width="640" height="280" as="geometry" />
        </mxCell>
        <mxCell id="16" style="edgeStyle=orthogonalEdgeStyle;rounded=0;orthogonalLoop=1;jettySize=auto;html=1;" parent="1" source="3" target="8" edge="1">
          <mxGeometry relative="1" as="geometry" />
        </mxCell>
        <mxCell id="17" style="edgeStyle=orthogonalEdgeStyle;rounded=0;orthogonalLoop=1;jettySize=auto;html=1;" parent="1" source="3" target="9" edge="1">
          <mxGeometry relative="1" as="geometry" />
        </mxCell>
        <mxCell id="3" value="Higher interest in Helping the environment&amp;nbsp;" style="rounded=0;whiteSpace=wrap;html=1;" parent="1" vertex="1">
          <mxGeometry x="380" y="70" width="330" height="40" as="geometry" />
        </mxCell>
        <mxCell id="18" style="edgeStyle=orthogonalEdgeStyle;rounded=0;orthogonalLoop=1;jettySize=auto;html=1;entryX=0.5;entryY=0;entryDx=0;entryDy=0;" parent="1" source="8" target="10" edge="1">
          <mxGeometry relative="1" as="geometry" />
        </mxCell>
        <mxCell id="8" value="More educated people" style="rounded=0;whiteSpace=wrap;html=1;" parent="1" vertex="1">
          <mxGeometry x="352" y="150" width="157" height="40" as="geometry" />
        </mxCell>
        <mxCell id="22" value="" style="edgeStyle=orthogonalEdgeStyle;rounded=0;orthogonalLoop=1;jettySize=auto;html=1;" parent="1" source="9" target="11" edge="1">
          <mxGeometry relative="1" as="geometry" />
        </mxCell>
        <mxCell id="9" value="&lt;b&gt;Comfortability and Safety&amp;nbsp;&lt;/b&gt;" style="rounded=0;whiteSpace=wrap;html=1;" parent="1" vertex="1">
          <mxGeometry x="592" y="150" width="157" height="40" as="geometry" />
        </mxCell>
        <mxCell id="10" value="Beginners can identify flowers way easier." style="rounded=0;whiteSpace=wrap;html=1;" parent="1" vertex="1">
          <mxGeometry x="352" y="230" width="157" height="40" as="geometry" />
        </mxCell>
        <mxCell id="11" value="&lt;b&gt;Reducing the risk of labeling the wrong flowers.&lt;/b&gt;&lt;div&gt;&lt;br&gt;&lt;/div&gt;" style="rounded=0;whiteSpace=wrap;html=1;" parent="1" vertex="1">
          <mxGeometry x="592" y="230" width="157" height="40" as="geometry" />
        </mxCell>
        <mxCell id="14" value="" style="html=1;shadow=0;dashed=0;align=center;verticalAlign=middle;shape=mxgraph.arrows2.calloutArrow;dy=33;dx=54;notch=65.19;arrowHead=25;rotation=-90;fillColor=#666666;strokeColor=none;textDirection=ltr;" parent="1" vertex="1">
          <mxGeometry x="484.49" y="162.64999999999998" width="135.02" height="467.35" as="geometry" />
        </mxCell>
        <mxCell id="23" value="Classify the&amp;nbsp; type of flowers&amp;nbsp;" style="rounded=0;whiteSpace=wrap;html=1;" parent="1" vertex="1">
          <mxGeometry x="372" y="543" width="388" height="40" as="geometry" />
        </mxCell>
        <mxCell id="25" value="&lt;font color=&quot;#ffffff&quot;&gt;&lt;b&gt;&lt;i&gt;Y&lt;/i&gt;&lt;/b&gt;&lt;/font&gt;" style="rounded=0;whiteSpace=wrap;html=1;fillColor=#000000;strokeColor=none;" parent="1" vertex="1">
          <mxGeometry x="373.5" y="740" width="56.5" height="40" as="geometry" />
        </mxCell>
        <mxCell id="49" value="" style="endArrow=open;endFill=1;endSize=12;html=1;rounded=0;exitX=0.5;exitY=0;exitDx=0;exitDy=0;entryX=0.161;entryY=1.003;entryDx=0;entryDy=0;entryPerimeter=0;" parent="1" source="25" target="23" edge="1">
          <mxGeometry width="160" relative="1" as="geometry">
            <mxPoint x="523.5" y="500" as="sourcePoint" />
            <mxPoint x="640.1327683615818" y="583" as="targetPoint" />
          </mxGeometry>
        </mxCell>
        <mxCell id="53" value="&lt;font color=&quot;#ffffff&quot;&gt;&lt;b&gt;&lt;i&gt;Y&lt;/i&gt;&lt;/b&gt;&lt;/font&gt;" style="rounded=0;whiteSpace=wrap;html=1;fillColor=#CCCCCC;strokeColor=none;" parent="1" vertex="1">
          <mxGeometry x="453.5" y="740" width="66.5" height="40" as="geometry" />
        </mxCell>
        <mxCell id="55" value="&lt;font color=&quot;#ffffff&quot;&gt;&lt;b&gt;&lt;i&gt;X&lt;/i&gt;&lt;/b&gt;&lt;/font&gt;" style="rounded=0;whiteSpace=wrap;html=1;fillColor=#CCCCCC;strokeColor=none;" parent="1" vertex="1">
          <mxGeometry x="590" y="740" width="63.5" height="40" as="geometry" />
        </mxCell>
        <mxCell id="56" value="&lt;font color=&quot;#ffffff&quot;&gt;&lt;b&gt;&lt;i&gt;X&lt;/i&gt;&lt;/b&gt;&lt;/font&gt;" style="rounded=0;whiteSpace=wrap;html=1;fillColor=#000000;strokeColor=none;" parent="1" vertex="1">
          <mxGeometry x="693.5" y="740" width="66.5" height="40" as="geometry" />
        </mxCell>
        <mxCell id="63" value="" style="endArrow=open;endFill=1;endSize=12;html=1;rounded=0;exitX=0.5;exitY=0;exitDx=0;exitDy=0;entryX=0.75;entryY=1;entryDx=0;entryDy=0;" parent="1" source="56" edge="1">
          <mxGeometry width="160" relative="1" as="geometry">
            <mxPoint x="713.5" y="660" as="sourcePoint" />
            <mxPoint x="709.7500000000002" y="583" as="targetPoint" />
          </mxGeometry>
        </mxCell>
        <mxCell id="64" value="" style="endArrow=open;endFill=1;endSize=12;html=1;rounded=0;exitX=0.5;exitY=0;exitDx=0;exitDy=0;entryX=0.5;entryY=1;entryDx=0;entryDy=0;" parent="1" source="55" edge="1">
          <mxGeometry width="160" relative="1" as="geometry">
            <mxPoint x="632" y="660" as="sourcePoint" />
            <mxPoint x="670.5" y="583" as="targetPoint" />
          </mxGeometry>
        </mxCell>
        <mxCell id="69" value="" style="endArrow=open;endFill=1;endSize=12;html=1;rounded=0;exitX=0.5;exitY=0;exitDx=0;exitDy=0;entryX=0.381;entryY=0.925;entryDx=0;entryDy=0;entryPerimeter=0;" parent="1" source="53" target="23" edge="1">
          <mxGeometry width="160" relative="1" as="geometry">
            <mxPoint x="543.5" y="700" as="sourcePoint" />
            <mxPoint x="653.5" y="620" as="targetPoint" />
            <Array as="points" />
          </mxGeometry>
        </mxCell>
        <mxCell id="87" value="&lt;b&gt;&lt;font style=&quot;font-size: 14px;&quot;&gt;Business value&lt;/font&gt;&lt;/b&gt;" style="text;html=1;align=center;verticalAlign=middle;resizable=0;points=[];autosize=1;strokeColor=none;fillColor=none;" parent="1" vertex="1">
          <mxGeometry x="250" y="50" width="120" height="30" as="geometry" />
        </mxCell>
        <mxCell id="88" value="&lt;b&gt;&lt;font style=&quot;font-size: 14px;&quot;&gt;Data-analytic problem&lt;/font&gt;&lt;/b&gt;" style="text;html=1;align=center;verticalAlign=middle;resizable=0;points=[];autosize=1;strokeColor=none;fillColor=none;" parent="1" vertex="1">
          <mxGeometry x="254" y="513" width="160" height="30" as="geometry" />
        </mxCell>
        <mxCell id="S7uaMKOrWHMENjDrE0Bv-109" value="" style="endArrow=classic;html=1;rounded=0;" parent="1" target="23" edge="1">
          <mxGeometry width="50" height="50" relative="1" as="geometry">
            <mxPoint x="603.5" y="740" as="sourcePoint" />
            <mxPoint x="653.5" y="690" as="targetPoint" />
          </mxGeometry>
        </mxCell>
        <mxCell id="AVpegdvpsQVoMJsOn8eH-108" value="Image Classification" style="ellipse;whiteSpace=wrap;html=1;" parent="1" vertex="1">
          <mxGeometry x="370" y="630" width="400" height="80" as="geometry" />
        </mxCell>
        <mxCell id="AVpegdvpsQVoMJsOn8eH-112" value="&lt;font color=&quot;#ffffff&quot;&gt;&lt;b&gt;&lt;i&gt;x&lt;sub&gt;n&lt;/sub&gt;&lt;/i&gt;&lt;/b&gt;&lt;/font&gt;" style="rounded=0;whiteSpace=wrap;html=1;fillColor=#000000;strokeColor=none;" parent="1" vertex="1">
          <mxGeometry x="370" y="740" width="60" height="40" as="geometry" />
        </mxCell>
        <mxCell id="AVpegdvpsQVoMJsOn8eH-113" value="&lt;font color=&quot;#ffffff&quot;&gt;&lt;b&gt;&lt;i&gt;x&lt;sub&gt;3&lt;/sub&gt;&lt;/i&gt;&lt;/b&gt;&lt;/font&gt;" style="rounded=0;whiteSpace=wrap;html=1;fillColor=#CCCCCC;strokeColor=none;" parent="1" vertex="1">
          <mxGeometry x="590" y="740" width="60" height="40" as="geometry" />
        </mxCell>
        <mxCell id="AVpegdvpsQVoMJsOn8eH-114" value="&lt;font color=&quot;#ffffff&quot;&gt;&lt;b&gt;&lt;i&gt;x&lt;sub&gt;2&lt;/sub&gt;&lt;/i&gt;&lt;/b&gt;&lt;/font&gt;" style="rounded=0;whiteSpace=wrap;html=1;fillColor=#CCCCCC;strokeColor=none;" parent="1" vertex="1">
          <mxGeometry x="450" y="740" width="70" height="40" as="geometry" />
        </mxCell>
        <mxCell id="AVpegdvpsQVoMJsOn8eH-115" value="&lt;font color=&quot;#ffffff&quot;&gt;&lt;b&gt;&lt;i&gt;x&lt;span style=&quot;font-size: 10px;&quot;&gt;&lt;sub&gt;1&lt;/sub&gt;&lt;/span&gt;&lt;/i&gt;&lt;/b&gt;&lt;/font&gt;" style="rounded=0;whiteSpace=wrap;html=1;fillColor=#000000;strokeColor=none;" parent="1" vertex="1">
          <mxGeometry x="690" y="740" width="70" height="40" as="geometry" />
        </mxCell>
        <mxCell id="AVpegdvpsQVoMJsOn8eH-118" value="It&amp;nbsp;helps environmental organizations with flower recognition&amp;nbsp;" style="text;strokeColor=none;align=center;fillColor=none;html=1;verticalAlign=middle;whiteSpace=wrap;rounded=0;" parent="1" vertex="1">
          <mxGeometry x="364" y="410" width="360" height="30" as="geometry" />
        </mxCell>
      </root>
    </mxGraphModel>
  </diagram>
</mxfile>
